<mxfile host="Electron" agent="Mozilla/5.0 (Windows NT 10.0; Win64; x64) AppleWebKit/537.36 (KHTML, like Gecko) draw.io/24.7.8 Chrome/128.0.6613.36 Electron/32.0.1 Safari/537.36" version="24.7.8">
  <diagram name="Page-1" id="A9Ylg3fb1iKOwNVggxnu">
    <mxGraphModel dx="1120" dy="532" grid="1" gridSize="10" guides="1" tooltips="1" connect="1" arrows="1" fold="1" page="1" pageScale="1" pageWidth="850" pageHeight="1100" math="0" shadow="0">
      <root>
        <mxCell id="0" />
        <mxCell id="1" parent="0" />
        <mxCell id="42rCIiYAz0mvuhvBqq5X-1" value="&lt;div&gt;&lt;br&gt;&lt;/div&gt;&lt;div&gt;&lt;br&gt;&lt;/div&gt;&lt;div&gt;user&lt;/div&gt;" style="shape=actor;whiteSpace=wrap;html=1;" parent="1" vertex="1">
          <mxGeometry x="370" y="10" width="40" height="60" as="geometry" />
        </mxCell>
        <mxCell id="42rCIiYAz0mvuhvBqq5X-2" value="&lt;font size=&quot;3&quot;&gt;Frontend&lt;/font&gt;" style="rounded=0;whiteSpace=wrap;html=1;" parent="1" vertex="1">
          <mxGeometry x="300" y="180" width="180" height="60" as="geometry" />
        </mxCell>
        <mxCell id="42rCIiYAz0mvuhvBqq5X-3" value="&lt;font style=&quot;font-size: 14px;&quot;&gt;Ad service&lt;/font&gt;" style="rounded=0;whiteSpace=wrap;html=1;" parent="1" vertex="1">
          <mxGeometry x="30" y="105" width="130" height="40" as="geometry" />
        </mxCell>
        <mxCell id="42rCIiYAz0mvuhvBqq5X-4" value="&lt;font style=&quot;font-size: 14px;&quot;&gt;Load Generator&lt;/font&gt;" style="rounded=0;whiteSpace=wrap;html=1;" parent="1" vertex="1">
          <mxGeometry x="540" y="20" width="150" height="50" as="geometry" />
        </mxCell>
        <mxCell id="42rCIiYAz0mvuhvBqq5X-5" value="" style="endArrow=classic;html=1;rounded=0;entryX=1;entryY=0.5;entryDx=0;entryDy=0;exitX=0;exitY=0.25;exitDx=0;exitDy=0;" parent="1" source="42rCIiYAz0mvuhvBqq5X-2" target="42rCIiYAz0mvuhvBqq5X-3" edge="1">
          <mxGeometry width="50" height="50" relative="1" as="geometry">
            <mxPoint x="230" y="240" as="sourcePoint" />
            <mxPoint x="450" y="250" as="targetPoint" />
          </mxGeometry>
        </mxCell>
        <mxCell id="42rCIiYAz0mvuhvBqq5X-9" value="" style="endArrow=classic;html=1;rounded=0;exitX=1;exitY=0.5;exitDx=0;exitDy=0;entryX=0;entryY=0.5;entryDx=0;entryDy=0;" parent="1" source="42rCIiYAz0mvuhvBqq5X-2" target="42rCIiYAz0mvuhvBqq5X-10" edge="1">
          <mxGeometry width="50" height="50" relative="1" as="geometry">
            <mxPoint x="510" y="190" as="sourcePoint" />
            <mxPoint x="510" y="300" as="targetPoint" />
          </mxGeometry>
        </mxCell>
        <mxCell id="42rCIiYAz0mvuhvBqq5X-10" value="&lt;font size=&quot;3&quot;&gt;Checkout service&lt;/font&gt;" style="rounded=0;whiteSpace=wrap;html=1;" parent="1" vertex="1">
          <mxGeometry x="670" y="185" width="150" height="50" as="geometry" />
        </mxCell>
        <mxCell id="42rCIiYAz0mvuhvBqq5X-13" value="&lt;font style=&quot;font-size: 14px;&quot;&gt;Recommendation service&lt;/font&gt;" style="rounded=0;whiteSpace=wrap;html=1;" parent="1" vertex="1">
          <mxGeometry x="30" y="260" width="130" height="40" as="geometry" />
        </mxCell>
        <mxCell id="42rCIiYAz0mvuhvBqq5X-14" value="&lt;font style=&quot;font-size: 14px;&quot;&gt;Shipping service&lt;/font&gt;" style="rounded=0;whiteSpace=wrap;html=1;" parent="1" vertex="1">
          <mxGeometry x="590" y="460" width="130" height="40" as="geometry" />
        </mxCell>
        <mxCell id="42rCIiYAz0mvuhvBqq5X-16" value="&lt;span style=&quot;font-size: 14px;&quot;&gt;Payment service&lt;/span&gt;" style="rounded=0;whiteSpace=wrap;html=1;" parent="1" vertex="1">
          <mxGeometry x="880" y="300" width="130" height="40" as="geometry" />
        </mxCell>
        <mxCell id="42rCIiYAz0mvuhvBqq5X-17" value="&lt;span style=&quot;font-size: 14px; background-color: initial;&quot;&gt;Currency service&lt;/span&gt;" style="rounded=0;whiteSpace=wrap;html=1;" parent="1" vertex="1">
          <mxGeometry x="770" y="460" width="130" height="40" as="geometry" />
        </mxCell>
        <mxCell id="42rCIiYAz0mvuhvBqq5X-18" value="&lt;font style=&quot;font-size: 14px;&quot;&gt;Email&lt;/font&gt;&lt;span style=&quot;background-color: initial; font-size: 14px;&quot;&gt;&amp;nbsp;service&lt;/span&gt;" style="rounded=0;whiteSpace=wrap;html=1;" parent="1" vertex="1">
          <mxGeometry x="880" y="105" width="130" height="40" as="geometry" />
        </mxCell>
        <mxCell id="42rCIiYAz0mvuhvBqq5X-21" value="" style="endArrow=classic;html=1;rounded=0;entryX=1;entryY=0.5;entryDx=0;entryDy=0;" parent="1" target="42rCIiYAz0mvuhvBqq5X-13" edge="1">
          <mxGeometry width="50" height="50" relative="1" as="geometry">
            <mxPoint x="300" y="220" as="sourcePoint" />
            <mxPoint x="160" y="175" as="targetPoint" />
          </mxGeometry>
        </mxCell>
        <mxCell id="42rCIiYAz0mvuhvBqq5X-24" value="" style="endArrow=classic;html=1;rounded=0;exitX=0.5;exitY=1;exitDx=0;exitDy=0;entryX=0.5;entryY=0;entryDx=0;entryDy=0;" parent="1" source="42rCIiYAz0mvuhvBqq5X-1" target="42rCIiYAz0mvuhvBqq5X-2" edge="1">
          <mxGeometry relative="1" as="geometry">
            <mxPoint x="370" y="290" as="sourcePoint" />
            <mxPoint x="470" y="290" as="targetPoint" />
          </mxGeometry>
        </mxCell>
        <mxCell id="42rCIiYAz0mvuhvBqq5X-25" value="Label" style="edgeLabel;resizable=0;html=1;;align=center;verticalAlign=middle;" parent="42rCIiYAz0mvuhvBqq5X-24" connectable="0" vertex="1">
          <mxGeometry relative="1" as="geometry" />
        </mxCell>
        <mxCell id="42rCIiYAz0mvuhvBqq5X-26" value="HTTP" style="edgeLabel;html=1;align=center;verticalAlign=middle;resizable=0;points=[];" parent="42rCIiYAz0mvuhvBqq5X-24" vertex="1" connectable="0">
          <mxGeometry x="-0.08" y="1" relative="1" as="geometry">
            <mxPoint as="offset" />
          </mxGeometry>
        </mxCell>
        <mxCell id="42rCIiYAz0mvuhvBqq5X-27" value="" style="endArrow=classic;html=1;rounded=0;exitX=0.46;exitY=1.02;exitDx=0;exitDy=0;exitPerimeter=0;entryX=0.75;entryY=0;entryDx=0;entryDy=0;" parent="1" source="42rCIiYAz0mvuhvBqq5X-4" target="42rCIiYAz0mvuhvBqq5X-2" edge="1">
          <mxGeometry relative="1" as="geometry">
            <mxPoint x="380" y="300" as="sourcePoint" />
            <mxPoint x="480" y="300" as="targetPoint" />
          </mxGeometry>
        </mxCell>
        <mxCell id="42rCIiYAz0mvuhvBqq5X-28" value="Label" style="edgeLabel;resizable=0;html=1;;align=center;verticalAlign=middle;" parent="42rCIiYAz0mvuhvBqq5X-27" connectable="0" vertex="1">
          <mxGeometry relative="1" as="geometry" />
        </mxCell>
        <mxCell id="42rCIiYAz0mvuhvBqq5X-29" value="HTTP" style="edgeLabel;html=1;align=center;verticalAlign=middle;resizable=0;points=[];" parent="42rCIiYAz0mvuhvBqq5X-27" vertex="1" connectable="0">
          <mxGeometry x="-0.08" y="1" relative="1" as="geometry">
            <mxPoint as="offset" />
          </mxGeometry>
        </mxCell>
        <mxCell id="42rCIiYAz0mvuhvBqq5X-30" value="" style="endArrow=classic;html=1;rounded=0;exitX=1;exitY=0;exitDx=0;exitDy=0;entryX=0.5;entryY=1;entryDx=0;entryDy=0;" parent="1" source="42rCIiYAz0mvuhvBqq5X-10" target="42rCIiYAz0mvuhvBqq5X-18" edge="1">
          <mxGeometry width="50" height="50" relative="1" as="geometry">
            <mxPoint x="490" y="220" as="sourcePoint" />
            <mxPoint x="680" y="220" as="targetPoint" />
          </mxGeometry>
        </mxCell>
        <mxCell id="42rCIiYAz0mvuhvBqq5X-31" value="" style="endArrow=classic;html=1;rounded=0;exitX=1;exitY=1;exitDx=0;exitDy=0;entryX=0.5;entryY=0;entryDx=0;entryDy=0;" parent="1" source="42rCIiYAz0mvuhvBqq5X-10" target="42rCIiYAz0mvuhvBqq5X-16" edge="1">
          <mxGeometry width="50" height="50" relative="1" as="geometry">
            <mxPoint x="771" y="244" as="sourcePoint" />
            <mxPoint x="805" y="320" as="targetPoint" />
          </mxGeometry>
        </mxCell>
        <mxCell id="42rCIiYAz0mvuhvBqq5X-32" value="" style="endArrow=classic;html=1;rounded=0;entryX=0.5;entryY=0;entryDx=0;entryDy=0;exitX=0.75;exitY=1;exitDx=0;exitDy=0;" parent="1" source="42rCIiYAz0mvuhvBqq5X-10" target="42rCIiYAz0mvuhvBqq5X-17" edge="1">
          <mxGeometry width="50" height="50" relative="1" as="geometry">
            <mxPoint x="770" y="230" as="sourcePoint" />
            <mxPoint x="775" y="370" as="targetPoint" />
          </mxGeometry>
        </mxCell>
        <mxCell id="42rCIiYAz0mvuhvBqq5X-34" value="" style="endArrow=classic;html=1;rounded=0;exitX=0.25;exitY=1;exitDx=0;exitDy=0;entryX=0.5;entryY=0;entryDx=0;entryDy=0;" parent="1" source="42rCIiYAz0mvuhvBqq5X-10" target="42rCIiYAz0mvuhvBqq5X-14" edge="1">
          <mxGeometry width="50" height="50" relative="1" as="geometry">
            <mxPoint x="718" y="245" as="sourcePoint" />
            <mxPoint x="595" y="370" as="targetPoint" />
          </mxGeometry>
        </mxCell>
        <mxCell id="42rCIiYAz0mvuhvBqq5X-35" value="&lt;font style=&quot;font-size: 14px;&quot;&gt;Product Catalog service&lt;/font&gt;" style="rounded=0;whiteSpace=wrap;html=1;" parent="1" vertex="1">
          <mxGeometry x="30" y="460" width="130" height="40" as="geometry" />
        </mxCell>
        <mxCell id="42rCIiYAz0mvuhvBqq5X-36" value="" style="endArrow=classic;html=1;rounded=0;entryX=0.75;entryY=0;entryDx=0;entryDy=0;exitX=0.25;exitY=1;exitDx=0;exitDy=0;" parent="1" source="42rCIiYAz0mvuhvBqq5X-2" target="42rCIiYAz0mvuhvBqq5X-35" edge="1">
          <mxGeometry width="50" height="50" relative="1" as="geometry">
            <mxPoint x="310" y="230" as="sourcePoint" />
            <mxPoint x="160" y="290" as="targetPoint" />
          </mxGeometry>
        </mxCell>
        <mxCell id="42rCIiYAz0mvuhvBqq5X-37" value="&lt;font style=&quot;font-size: 14px;&quot;&gt;Cart service&lt;/font&gt;" style="rounded=0;whiteSpace=wrap;html=1;" parent="1" vertex="1">
          <mxGeometry x="325" y="460" width="130" height="40" as="geometry" />
        </mxCell>
        <mxCell id="42rCIiYAz0mvuhvBqq5X-38" value="" style="endArrow=classic;html=1;rounded=0;entryX=0.5;entryY=0;entryDx=0;entryDy=0;exitX=0.5;exitY=1;exitDx=0;exitDy=0;" parent="1" source="42rCIiYAz0mvuhvBqq5X-2" target="42rCIiYAz0mvuhvBqq5X-37" edge="1">
          <mxGeometry width="50" height="50" relative="1" as="geometry">
            <mxPoint x="310" y="230" as="sourcePoint" />
            <mxPoint x="160" y="290" as="targetPoint" />
          </mxGeometry>
        </mxCell>
        <mxCell id="42rCIiYAz0mvuhvBqq5X-39" value="&lt;font size=&quot;3&quot;&gt;&amp;nbsp; &amp;nbsp;Redis&amp;nbsp; &amp;nbsp; cache&lt;/font&gt;" style="shape=cylinder3;whiteSpace=wrap;html=1;boundedLbl=1;backgroundOutline=1;size=15;" parent="1" vertex="1">
          <mxGeometry x="339" y="600" width="102" height="80" as="geometry" />
        </mxCell>
        <mxCell id="42rCIiYAz0mvuhvBqq5X-40" value="" style="endArrow=classic;html=1;rounded=0;entryX=0.5;entryY=0;entryDx=0;entryDy=0;exitX=0.5;exitY=1;exitDx=0;exitDy=0;entryPerimeter=0;" parent="1" source="42rCIiYAz0mvuhvBqq5X-37" target="42rCIiYAz0mvuhvBqq5X-39" edge="1">
          <mxGeometry width="50" height="50" relative="1" as="geometry">
            <mxPoint x="310" y="230" as="sourcePoint" />
            <mxPoint x="160" y="290" as="targetPoint" />
          </mxGeometry>
        </mxCell>
        <mxCell id="42rCIiYAz0mvuhvBqq5X-41" value="" style="endArrow=classic;html=1;rounded=0;entryX=0.5;entryY=0;entryDx=0;entryDy=0;exitX=0.5;exitY=1;exitDx=0;exitDy=0;" parent="1" source="42rCIiYAz0mvuhvBqq5X-13" target="42rCIiYAz0mvuhvBqq5X-35" edge="1">
          <mxGeometry width="50" height="50" relative="1" as="geometry">
            <mxPoint x="310" y="230" as="sourcePoint" />
            <mxPoint x="160" y="290" as="targetPoint" />
          </mxGeometry>
        </mxCell>
        <mxCell id="42rCIiYAz0mvuhvBqq5X-42" value="" style="endArrow=classic;html=1;rounded=0;exitX=0;exitY=1;exitDx=0;exitDy=0;entryX=1;entryY=0;entryDx=0;entryDy=0;" parent="1" source="42rCIiYAz0mvuhvBqq5X-10" target="42rCIiYAz0mvuhvBqq5X-35" edge="1">
          <mxGeometry width="50" height="50" relative="1" as="geometry">
            <mxPoint x="718" y="245" as="sourcePoint" />
            <mxPoint x="635" y="410" as="targetPoint" />
          </mxGeometry>
        </mxCell>
        <mxCell id="42rCIiYAz0mvuhvBqq5X-43" value="" style="endArrow=classic;html=1;rounded=0;exitX=1;exitY=1;exitDx=0;exitDy=0;entryX=0.25;entryY=0;entryDx=0;entryDy=0;" parent="1" source="42rCIiYAz0mvuhvBqq5X-2" target="42rCIiYAz0mvuhvBqq5X-17" edge="1">
          <mxGeometry width="50" height="50" relative="1" as="geometry">
            <mxPoint x="718" y="245" as="sourcePoint" />
            <mxPoint x="665" y="440" as="targetPoint" />
          </mxGeometry>
        </mxCell>
        <mxCell id="42rCIiYAz0mvuhvBqq5X-44" value="" style="endArrow=classic;html=1;rounded=0;exitX=0.75;exitY=1;exitDx=0;exitDy=0;entryX=0.25;entryY=0;entryDx=0;entryDy=0;" parent="1" source="42rCIiYAz0mvuhvBqq5X-2" target="42rCIiYAz0mvuhvBqq5X-14" edge="1">
          <mxGeometry width="50" height="50" relative="1" as="geometry">
            <mxPoint x="490" y="250" as="sourcePoint" />
            <mxPoint x="803" y="440" as="targetPoint" />
          </mxGeometry>
        </mxCell>
        <mxCell id="xweDf9rFLMSrP6DdLbqp-2" value="&lt;font size=&quot;3&quot;&gt;MySQL database&lt;/font&gt;" style="shape=cylinder3;whiteSpace=wrap;html=1;boundedLbl=1;backgroundOutline=1;size=15;" parent="1" vertex="1">
          <mxGeometry x="604" y="600" width="102" height="80" as="geometry" />
        </mxCell>
        <mxCell id="xweDf9rFLMSrP6DdLbqp-3" value="&lt;font size=&quot;3&quot;&gt;MySQL database&lt;/font&gt;" style="shape=cylinder3;whiteSpace=wrap;html=1;boundedLbl=1;backgroundOutline=1;size=15;" parent="1" vertex="1">
          <mxGeometry x="894" y="600" width="102" height="80" as="geometry" />
        </mxCell>
        <mxCell id="xweDf9rFLMSrP6DdLbqp-4" value="" style="endArrow=classic;html=1;rounded=0;entryX=0.5;entryY=0;entryDx=0;entryDy=0;exitX=0.5;exitY=1;exitDx=0;exitDy=0;entryPerimeter=0;" parent="1" source="42rCIiYAz0mvuhvBqq5X-16" target="xweDf9rFLMSrP6DdLbqp-3" edge="1">
          <mxGeometry width="50" height="50" relative="1" as="geometry">
            <mxPoint x="793" y="245" as="sourcePoint" />
            <mxPoint x="855" y="470" as="targetPoint" />
          </mxGeometry>
        </mxCell>
        <mxCell id="xweDf9rFLMSrP6DdLbqp-5" value="" style="endArrow=none;html=1;rounded=0;entryX=1;entryY=1;entryDx=0;entryDy=0;" parent="1" target="42rCIiYAz0mvuhvBqq5X-18" edge="1">
          <mxGeometry width="50" height="50" relative="1" as="geometry">
            <mxPoint x="1140" y="360" as="sourcePoint" />
            <mxPoint x="900" y="200" as="targetPoint" />
          </mxGeometry>
        </mxCell>
        <mxCell id="xweDf9rFLMSrP6DdLbqp-7" value="" style="endArrow=classic;html=1;rounded=0;entryX=0.588;entryY=0.125;entryDx=0;entryDy=0;entryPerimeter=0;" parent="1" target="xweDf9rFLMSrP6DdLbqp-8" edge="1">
          <mxGeometry width="50" height="50" relative="1" as="geometry">
            <mxPoint x="1140" y="360" as="sourcePoint" />
            <mxPoint x="900" y="500" as="targetPoint" />
          </mxGeometry>
        </mxCell>
        <mxCell id="xweDf9rFLMSrP6DdLbqp-8" value="&lt;font size=&quot;3&quot;&gt;MySQL database&lt;/font&gt;" style="shape=cylinder3;whiteSpace=wrap;html=1;boundedLbl=1;backgroundOutline=1;size=15;" parent="1" vertex="1">
          <mxGeometry x="1080" y="600" width="102" height="80" as="geometry" />
        </mxCell>
        <mxCell id="xweDf9rFLMSrP6DdLbqp-9" value="" style="endArrow=classic;html=1;rounded=0;exitX=0.5;exitY=1;exitDx=0;exitDy=0;" parent="1" source="42rCIiYAz0mvuhvBqq5X-14" target="xweDf9rFLMSrP6DdLbqp-2" edge="1">
          <mxGeometry width="50" height="50" relative="1" as="geometry">
            <mxPoint x="400" y="510" as="sourcePoint" />
            <mxPoint x="400" y="610" as="targetPoint" />
          </mxGeometry>
        </mxCell>
        <mxCell id="xweDf9rFLMSrP6DdLbqp-10" value="&lt;font size=&quot;3&quot;&gt;dbcontrolservice&lt;/font&gt;" style="rounded=0;whiteSpace=wrap;html=1;" parent="1" vertex="1">
          <mxGeometry x="580" y="800" width="150" height="50" as="geometry" />
        </mxCell>
        <mxCell id="xweDf9rFLMSrP6DdLbqp-11" value="" style="endArrow=classic;html=1;rounded=0;exitX=0.75;exitY=0;exitDx=0;exitDy=0;entryX=0.5;entryY=1;entryDx=0;entryDy=0;entryPerimeter=0;" parent="1" source="xweDf9rFLMSrP6DdLbqp-10" target="xweDf9rFLMSrP6DdLbqp-3" edge="1">
          <mxGeometry width="50" height="50" relative="1" as="geometry">
            <mxPoint x="665" y="510" as="sourcePoint" />
            <mxPoint x="665" y="610" as="targetPoint" />
          </mxGeometry>
        </mxCell>
        <mxCell id="xweDf9rFLMSrP6DdLbqp-12" value="" style="endArrow=classic;html=1;rounded=0;entryX=0.5;entryY=1;entryDx=0;entryDy=0;entryPerimeter=0;exitX=0.5;exitY=0;exitDx=0;exitDy=0;" parent="1" source="xweDf9rFLMSrP6DdLbqp-10" target="xweDf9rFLMSrP6DdLbqp-2" edge="1">
          <mxGeometry width="50" height="50" relative="1" as="geometry">
            <mxPoint x="800" y="730" as="sourcePoint" />
            <mxPoint x="675" y="620" as="targetPoint" />
          </mxGeometry>
        </mxCell>
        <mxCell id="xweDf9rFLMSrP6DdLbqp-13" value="" style="endArrow=classic;html=1;rounded=0;entryX=0.5;entryY=1;entryDx=0;entryDy=0;entryPerimeter=0;exitX=1;exitY=0.5;exitDx=0;exitDy=0;" parent="1" source="xweDf9rFLMSrP6DdLbqp-10" target="xweDf9rFLMSrP6DdLbqp-8" edge="1">
          <mxGeometry width="50" height="50" relative="1" as="geometry">
            <mxPoint x="990" y="930" as="sourcePoint" />
            <mxPoint x="685" y="630" as="targetPoint" />
          </mxGeometry>
        </mxCell>
      </root>
    </mxGraphModel>
  </diagram>
</mxfile>
